<svg width="95" height="30" viewBox="0 0 95 30" fill="none" xmlns="http://www.w3.org/2000/svg">
<path d="M1.5 16.5L3.60492 13.5351C4.65636 12.0541 6.91043 12.2413 7.7032 13.8754V13.8754C8.57294 15.6683 11.1259 15.6716 12.0003 13.8809L12.705 12.4378C13.9235 9.94212 17.5341 10.1075 18.5194 12.7041L21.052 19.3782C21.7001 21.086 24.1043 21.1182 24.798 19.4284V19.4284C25.4957 17.7287 27.9186 17.7744 28.5517 19.4992L30.0963 23.7076C30.9372 25.9986 34.1378 26.1053 35.1295 23.8754L36.3606 21.1068C36.8427 20.0227 38.3813 20.0227 38.8634 21.1068V21.1068C39.3604 22.2242 40.9614 22.1796 41.3953 21.0362L45.4153 10.4424C46.0555 8.75539 48.4177 8.68953 49.1508 10.3382V10.3382C49.8719 11.9597 52.1832 11.9308 52.8634 10.2918L54.4815 6.39324C55.6363 3.61075 59.4014 3.1854 61.1479 5.6401L66.5024 13.1657C68.0929 15.4011 71.5204 15.019 72.5796 12.4883V12.4883C73.7062 9.79646 77.4392 9.58604 78.8612 12.1342L80.0042 14.1826C80.9973 15.9622 83.5642 15.9434 84.5311 14.1495V14.1495C85.4704 12.4069 87.9407 12.3263 88.9915 14.004L94 22" stroke="#50CD89" stroke-width="2"/>
</svg>
